<?xml version="1.0" encoding="UTF-8" standalone="no"?>
<svg
   id="Layer_1"
   data-name="Layer 1"
   viewBox="0 0 256.00001 255.99999"
   version="1.1"
   sodipodi:docname="icon.svg"
   width="256"
   height="256"
   inkscape:version="1.4 (86a8ad7, 2024-10-11)"
   inkscape:export-filename="icon.png"
   inkscape:export-xdpi="384"
   inkscape:export-ydpi="384"
   xml:space="preserve"
   xmlns:inkscape="http://www.inkscape.org/namespaces/inkscape"
   xmlns:sodipodi="http://sodipodi.sourceforge.net/DTD/sodipodi-0.dtd"
   xmlns="http://www.w3.org/2000/svg"
   xmlns:svg="http://www.w3.org/2000/svg"
   xmlns:rdf="http://www.w3.org/1999/02/22-rdf-syntax-ns#"
   xmlns:cc="http://creativecommons.org/ns#"
   xmlns:dc="http://purl.org/dc/elements/1.1/"><metadata
     id="metadata17"><rdf:RDF><cc:Work
         rdf:about=""><dc:format>image/svg+xml</dc:format><dc:type
           rdf:resource="http://purl.org/dc/dcmitype/StillImage" /><dc:title>Logo</dc:title></cc:Work></rdf:RDF></metadata><sodipodi:namedview
     pagecolor="#404040"
     bordercolor="#666666"
     borderopacity="1"
     objecttolerance="10"
     gridtolerance="10"
     guidetolerance="10"
     inkscape:pageopacity="0"
     inkscape:pageshadow="2"
     inkscape:window-width="1920"
     inkscape:window-height="1009"
     id="namedview15"
     showgrid="false"
     inkscape:zoom="2"
     inkscape:cx="119.5"
     inkscape:cy="132.25"
     inkscape:window-x="1912"
     inkscape:window-y="-8"
     inkscape:window-maximized="1"
     inkscape:current-layer="g5008"
     inkscape:pagecheckerboard="true"
     inkscape:showpageshadow="2"
     inkscape:deskcolor="#d1d1d1"
     showguides="false"><sodipodi:guide
       position="20.94882,74.419698"
       orientation="-0.069433618,0.99758657"
       id="guide2430"
       inkscape:locked="false" /><sodipodi:guide
       position="73.272355,197.16561"
       orientation="-0.069663038,0.99757058"
       id="guide2510"
       inkscape:locked="false" /><sodipodi:guide
       position="67.298958,168.72013"
       orientation="-0.069714868,0.99756696"
       id="guide2512"
       inkscape:locked="false" /><sodipodi:guide
       position="83.991844,142.90791"
       orientation="0.069714704,-0.99756697"
       id="guide2514"
       inkscape:locked="false" /><sodipodi:guide
       position="53.907365,103.7041"
       orientation="-0.070297825,0.99752605"
       id="guide2516"
       inkscape:locked="false" /><sodipodi:guide
       position="58.847651,126.91412"
       orientation="0.069545227,-0.9975788"
       id="guide2518"
       inkscape:locked="false" /><sodipodi:guide
       position="52.019802,222.65158"
       orientation="-0.070186043,0.99753392"
       id="guide2544"
       inkscape:locked="false" /></sodipodi:namedview><defs
     id="defs4"><style
       id="style2">.cls-1{fill:#d5d5d5;}.cls-2{fill:#e23229;}</style><clipPath
       clipPathUnits="userSpaceOnUse"
       id="clipPath4265"><g
         id="g4271"
         inkscape:label="SS"
         transform="matrix(0.77677454,0,0,0.77677454,20.941051,54.445619)"
         style="display:inline"><path
           style="fill:#d5d5d5"
           inkscape:connector-curvature="0"
           d="m 123.07,37.839985 -63.39,4.43 7.69,-36.6199996 28.64,-2 -5,24.1899996 34.75,-2.42 12.46,-59.49 -98.21,6.91 -22.23,107.09 63.39,-4.43 -10.35,48.470005 -28.38,2 6.36,-29.880005 -35,2.44 -13.79,65.140005 98.13,-6.83 z"
           class="cls-1"
           data-name="path172"
           id="path4267"
           inkscape:label="Left S" /><path
           style="fill:#d5d5d5"
           inkscape:connector-curvature="0"
           d="m 239.92245,29.669872 -63.39,4.43 7.69,-36.6099991 28.64,-2 -5,24.2299991 34.75,-2.43 12.47,-59.49 -98.15,6.85 -22.28,107.12 63.39,-4.43 -10.39,48.480008 -28.38,2 6.38,-29.900008 -35,2.44 -13.8,65.160008 98.14,-6.86 z"
           class="cls-1"
           data-name="path172"
           id="path4269"
           inkscape:label="Right S" /></g></clipPath></defs><title
     id="title6">Logo</title><g
     id="g5008"
     inkscape:label="GAY GAY WOMEN GAY"
     clip-path="url(#clipPath4265)"><path
       style="fill:#8da7ff;stroke:none;stroke-width:0.665;fill-opacity:1"
       d="M 193.71289,142.44336 26.685547,154.21484 20.949219,181.58008 187.94141,169.91992 Z"
       id="path968"
       inkscape:label="dark pink" /><path
       style="fill:#ff9cce;stroke:none;stroke-width:0.665;fill-opacity:1"
       d="M 219.08203,21.666016 52.019531,33.347656 46.283203,60.71875 213.32812,49.054688 h 0.002 z"
       id="path2669"
       inkscape:label="dark orange" /><path
       style="fill:#675fff;fill-opacity:1;stroke:none;stroke-width:0.665"
       d="M 201.60547,104.87305 34.582031,116.54492 26.685547,154.21484 193.71289,142.44336 Z"
       id="path996"
       inkscape:label="pink" /><path
       style="fill:#ff52bf;fill-opacity:1;stroke:none;stroke-width:0.665"
       d="M 213.33008,49.054688 46.283203,60.71875 40.320312,89.166016 207.30664,77.496094 201.67188,104.55664 Z"
       id="path5012-5"
       inkscape:label="light orange" /><path
       style="fill:#200044;fill-opacity:1;stroke:none;stroke-width:0.665"
       d="M 40.319988,89.165292 207.30606,77.495486 201.60502,104.87272 34.580876,116.54516 Z"
       id="path5140-1"
       inkscape:label="walter" /></g><g
     id="g829"
     transform="matrix(0.77677453,0,0,0.77677453,20.94105,54.445619)"
     inkscape:label="SS14"
     style="display:inline"><g
       id="g2320"
       inkscape:label="14"
       style="display:inline"><path
         style="fill:#e23229"
         inkscape:connector-curvature="0"
         d="m 109.24,253.60999 41.87,-200.640005 -59.68,4.17 -7.36,35 25.46,-1.78 -34.52,165.640005 z"
         class="cls-2"
         id="path148"
         inkscape:label="1" /><path
         style="fill:#e23229"
         inkscape:connector-curvature="0"
         id="path12"
         d="m 248.01,141.39999 20.16,-96.620005 -26.09,1.92 -95.51,112.140005 -5.07,24.16 65.06,-4.5 -14.45,69.34 34.23,-2.39 14.45,-69.24 27.61,-1.89 7.24,-34.78 z m -32.83,5.11 -20.11,1.38 26,-29.61 z"
         class="cls-2"
         inkscape:label="4" /></g></g></svg>
