<?xml version="1.0" encoding="UTF-8" standalone="no"?>
<svg
   xmlns:dc="http://purl.org/dc/elements/1.1/"
   xmlns:cc="http://creativecommons.org/ns#"
   xmlns:rdf="http://www.w3.org/1999/02/22-rdf-syntax-ns#"
   xmlns:svg="http://www.w3.org/2000/svg"
   xmlns="http://www.w3.org/2000/svg"
   xmlns:sodipodi="http://sodipodi.sourceforge.net/DTD/sodipodi-0.dtd"
   xmlns:inkscape="http://www.inkscape.org/namespaces/inkscape"
   sodipodi:docname="github-logo.svg"
   inkscape:version="1.0 (4035a4fb49, 2020-05-01)"
   id="svg8"
   version="1.1"
   viewBox="0 0 232.83332 79.375003"
   height="300"
   width="880">
  <defs
     id="defs2" />
  <sodipodi:namedview
     inkscape:window-maximized="1"
     inkscape:window-y="0"
     inkscape:window-x="0"
     inkscape:window-height="1043"
     inkscape:window-width="1920"
     fit-margin-bottom="60"
     fit-margin-right="100"
     fit-margin-left="100"
     fit-margin-top="60"
     units="px"
     showgrid="false"
     inkscape:document-rotation="0"
     inkscape:current-layer="layer1"
     inkscape:document-units="px"
     inkscape:cy="225.43912"
     inkscape:cx="291.53679"
     inkscape:zoom="0.72607683"
     inkscape:pageshadow="2"
     inkscape:pageopacity="0.0"
     borderopacity="1.0"
     bordercolor="#666666"
     pagecolor="#ffffff"
     id="base" />
  <metadata
     id="metadata5">
    <rdf:RDF>
      <cc:Work
         rdf:about="">
        <dc:format>image/svg+xml</dc:format>
        <dc:type
           rdf:resource="http://purl.org/dc/dcmitype/StillImage" />
        <dc:title></dc:title>
      </cc:Work>
    </rdf:RDF>
  </metadata>
  <g
     transform="translate(7.6582463,-76.645126)"
     id="layer1"
     inkscape:groupmode="layer"
     inkscape:label="Layer 1">
    <path
       sodipodi:nodetypes="ccccccc"
       id="path901"
       d="M -7.6582463,76.645126 V 145.43679 L 2.9250869,156.02013 H 225.17508 V 87.228459 L 214.59175,76.645126 Z"
       style="fill:#25252a;fill-opacity:1;stroke:none;stroke-width:0.265;stroke-linecap:butt;stroke-linejoin:miter;stroke-miterlimit:4;stroke-dasharray:none;stroke-opacity:1" />
    <g
       id="g2559"
       transform="translate(-43.719628,-52.425806)">
      <g
         transform="matrix(0.98569755,0,0,0.98569754,74.365879,-0.14392109)"
         id="g4470">
        <path
           inkscape:connector-curvature="0"
           id="path172"
           style="fill:#d5d5d5;fill-opacity:1;fill-rule:nonzero;stroke:none;stroke-width:0.347732"
           d="m 71.070134,172.95255 -4.734664,0.33077 0.57447,-2.73456 2.139294,-0.14973 -0.376241,1.80924 2.595442,-0.18103 0.930868,-4.44332 -7.330114,0.5118 -1.66358,8.00131 4.734672,-0.33077 -0.773014,3.62025 -2.119829,0.1484 0.475696,-2.23174 -2.614982,0.18237 -1.030327,4.86616 7.330104,-0.5118 z" />
        <path
           inkscape:connector-curvature="0"
           id="path176"
           style="fill:#d5d5d5;fill-opacity:1;fill-rule:nonzero;stroke:none;stroke-width:0.347732"
           d="m 74.794828,169.99754 2.496095,-0.17422 -2.436556,11.62085 2.595151,-0.182 2.436903,-11.62086 2.496023,-0.17421 0.554678,-2.63441 -7.587516,0.53064 z" />
        <path
           inkscape:connector-curvature="0"
           id="path180"
           style="fill:#d5d5d5;fill-opacity:1;fill-rule:nonzero;stroke:none;stroke-width:0.347732"
           d="m 87.573322,171.75893 0.554606,-2.69318 2.119754,-0.1484 -0.554978,2.69354 z m 2.832629,8.59803 2.991888,-14.25529 -7.310379,0.51154 -2.99153,14.25493 2.595227,-0.18201 1.327293,-6.27378 2.11968,-0.14839 -1.327288,6.27414 z" />
        <path
           inkscape:connector-curvature="0"
           id="path184"
           style="fill:#d5d5d5;fill-opacity:1;fill-rule:nonzero;stroke:none;stroke-width:0.347732"
           d="m 98.977684,179.78056 2.436926,-11.62086 2.49608,-0.1752 0.55493,-2.63374 -7.587518,0.53065 -0.554634,2.63373 2.495947,-0.17421 -2.436599,11.6212 z" />
        <path
           inkscape:connector-curvature="0"
           id="path188"
           style="fill:#d5d5d5;fill-opacity:1;fill-rule:nonzero;stroke:none;stroke-width:0.347732"
           d="m 104.62426,179.38562 2.5951,-0.18101 2.9915,-14.25528 -2.59522,0.182 z" />
        <path
           inkscape:connector-curvature="0"
           id="path192"
           style="fill:#d5d5d5;fill-opacity:1;fill-rule:nonzero;stroke:none;stroke-width:0.347732"
           d="m 115.73198,167.18138 2.11975,-0.14839 -1.88236,8.98749 -2.11949,0.14838 z m -5.03203,11.80203 7.31001,-0.51042 2.99153,-14.25494 -7.31028,0.51044 z" />
        <path
           sodipodi:nodetypes="ccccccccccc"
           inkscape:connector-curvature="0"
           id="path196"
           style="fill:#d5d5d5;fill-opacity:1;fill-rule:nonzero;stroke:none;stroke-width:0.347732"
           d="m 124.08538,178.07141 1.36653,-6.47511 1.18856,6.29603 2.25853,-0.15792 2.99192,-14.25493 -2.59522,0.18201 -1.36734,6.57353 -1.18854,-6.39514 -2.25854,0.15791 -2.99084,14.25493 z" />
      </g>
      <g
         transform="matrix(0.98569755,0,0,0.98569754,-0.0640317,21.542203)"
         id="g4477">
        <path
           inkscape:connector-curvature="0"
           id="path156"
           style="fill:#fefefe;fill-opacity:1;fill-rule:nonzero;stroke:none;stroke-width:0.347732"
           d="m 88.591903,151.83158 -2.595368,0.18103 0.741705,-3.62685 2.595079,-0.182 z m -4.581719,-6.72375 -3.99857,19.05572 3.468889,-0.24195 1.774487,-8.38766 6.064403,-0.42299 2.224789,-10.66981 z" />
        <path
           inkscape:connector-curvature="0"
           id="path160"
           style="fill:#fefefe;fill-opacity:1;fill-rule:nonzero;stroke:none;stroke-width:0.347732"
           d="m 100.85029,147.82177 2.83371,-0.19837 -0.74166,3.60045 -2.83371,0.19836 z m -6.726869,15.77696 3.469312,-0.24198 1.774487,-8.38695 2.8337,-0.19837 -1.77453,8.38695 3.46938,-0.24296 3.99895,-19.05608 -9.771974,0.68329 z" />
        <path
           inkscape:connector-curvature="0"
           id="path164"
           style="fill:#fefefe;fill-opacity:1;fill-rule:nonzero;stroke:none;stroke-width:0.347732"
           d="m 108.80467,162.68768 9.74554,-0.68118 1.377,-6.50502 -3.4693,0.24296 -0.63527,2.9832 -2.80718,0.19654 2.51548,-12.01379 2.80731,-0.19754 -0.50239,2.4195 3.46902,-0.24294 1.24513,-5.93998 -9.74589,0.68119 z" />
        <path
           inkscape:connector-curvature="0"
           id="path168"
           style="fill:#fefefe;fill-opacity:1;fill-rule:nonzero;stroke:none;stroke-width:0.347732"
           d="m 135.66767,145.61788 0.7409,-3.5211 -8.95132,0.6259 -3.99824,19.0564 8.95097,-0.62626 0.74082,-3.52077 -5.4816,0.383 1.03272,-4.89224 3.78675,-0.26474 0.74189,-3.52113 -3.78675,0.26474 0.74081,-3.6011 z" />
        <path
           sodipodi:nodetypes="ccccccccccccccccccc"
           inkscape:connector-curvature="0"
           id="path200"
           style="fill:#fefefe;fill-opacity:1;fill-rule:nonzero;stroke:none;stroke-width:0.347732"
           d="m 66.677649,158.65784 -1.377014,6.50536 9.798394,-0.68469 2.489415,-11.87958 -6.329111,0.44214 0.767747,-3.65465 2.860076,-0.20018 -0.503204,2.41917 3.469299,-0.24297 1.244526,-5.93996 -4.328229,0.30289 -8.728801,0.57005 2.909856,1.48886 -1.87565,9.01912 6.329037,-0.44213 -1.032406,4.83973 -2.833645,0.19738 0.635302,-2.98354 z" />
      </g>
      <path
         sodipodi:nodetypes="ccccc"
         d="m 69.436846,159.51098 -0.273452,1.34584 137.181056,-9.4256 0.2853,-1.36866 z"
         style="fill:#e23229;fill-opacity:1;fill-rule:nonzero;stroke:none;stroke-width:0.342759"
         id="path204"
         inkscape:connector-curvature="0" />
      <path
         sodipodi:nodetypes="ccccc"
         d="m 62.915182,191.18298 137.106648,-9.42099 0.2853,-1.36865 -137.118191,9.44367 z"
         style="fill:#e23229;fill-opacity:1;fill-rule:nonzero;stroke:none;stroke-width:0.342759"
         id="path208"
         inkscape:connector-curvature="0" />
      <g
         transform="matrix(1,-0.06861153,-0.20845555,1,33.595586,18.744666)"
         id="g4517">
        <path
           inkscape:connector-curvature="0"
           id="path148"
           style="fill:#e23229;fill-opacity:1;fill-rule:nonzero;stroke:none;stroke-width:0.345236"
           d="m 209.28965,147.21125 0.002,-0.69222 5.06758,-0.007 -0.0275,29.33003 -0.68193,8.3e-4 0.0259,-28.63743 z m 7.68381,31.24867 0.007,-34.57225 -10.28101,0.0134 -0.009,6.03432 4.38533,-0.006 0.003,28.53864 z" />
        <path
           sodipodi:nodetypes="cccccccccccccccccccccc"
           inkscape:connector-curvature="0"
           id="path152"
           style="fill:#e23229;fill-opacity:1;fill-rule:nonzero;stroke:none;stroke-width:0.345236"
           d="m 234.5791,146.48498 -0.0154,16.64984 4.72271,-1e-5 3.7e-4,0.74326 h -4.7238 l -0.0109,11.93676 -0.74321,2.6e-4 0.0126,-11.93699 -11.20922,0.007 z m -14.53922,20.02441 11.20914,-0.007 v 11.93823 l 5.8959,-0.008 0.002,-11.9308 h 4.75754 l 1e-5,-5.99209 h -4.75663 l 0.003,-16.64923 -4.49017,0.0228 -12.61421,18.46247 z" />
        <path
           sodipodi:nodetypes="cccccccc"
           inkscape:connector-curvature="0"
           id="path1772"
           d="m 233.82149,149.12308 -9.77187,14.01173 h 9.77187 z m -2.22595,7.02077 1e-5,4.86552 h -3.46516 z"
           style="fill:#e23229;fill-opacity:1;stroke:none;stroke-width:0.260799px;stroke-linecap:butt;stroke-linejoin:miter;stroke-opacity:1" />
      </g>
    </g>
  </g>
</svg>
