<?xml version="1.0" encoding="UTF-8" standalone="no"?>
<svg
   width="176.72mm"
   height="44.207638mm"
   viewBox="0 0 176.72 44.207638"
   version="1.1"
   id="svg3852"
   sodipodi:docname="logo-long-new.svg"
   inkscape:version="1.4.4 (dcaf3e7, 2026-05-05)"
   inkscape:export-filename="logo-long-auth-new.png"
   inkscape:export-xdpi="96"
   inkscape:export-ydpi="96"
   xmlns:inkscape="http://www.inkscape.org/namespaces/inkscape"
   xmlns:sodipodi="http://sodipodi.sourceforge.net/DTD/sodipodi-0.dtd"
   xmlns="http://www.w3.org/2000/svg"
   xmlns:svg="http://www.w3.org/2000/svg"
   xmlns:rdf="http://www.w3.org/1999/02/22-rdf-syntax-ns#"
   xmlns:cc="http://creativecommons.org/ns#"
   xmlns:dc="http://purl.org/dc/elements/1.1/">
  <defs
     id="defs3846" />
  <sodipodi:namedview
     id="base"
     pagecolor="#ffffff"
     bordercolor="#666666"
     borderopacity="1.0"
     inkscape:pageopacity="0.0"
     inkscape:pageshadow="2"
     inkscape:zoom="2"
     inkscape:cx="269.75"
     inkscape:cy="70.75"
     inkscape:document-units="mm"
     inkscape:current-layer="layer3"
     showgrid="false"
     inkscape:pagecheckerboard="true"
     inkscape:window-width="2560"
     inkscape:window-height="1377"
     inkscape:window-x="-8"
     inkscape:window-y="-8"
     inkscape:window-maximized="1"
     inkscape:document-rotation="0"
     inkscape:showpageshadow="2"
     inkscape:deskcolor="#d1d1d1" />
  <metadata
     id="metadata3849">
    <rdf:RDF>
      <cc:Work
         rdf:about="">
        <dc:format>image/svg+xml</dc:format>
        <dc:type
           rdf:resource="http://purl.org/dc/dcmitype/StillImage" />
      </cc:Work>
    </rdf:RDF>
  </metadata>
  <g
     inkscape:groupmode="layer"
     id="layer3"
     inkscape:label="Layer 3"
     style="display:inline"
     transform="matrix(1.6897164,-0.11815649,-0.35916031,1.6897164,-8.2371201,-3.1089959)">
    <path
       d="m 13.015192,15.374106 c 0,-0.218936 0.168412,-0.42103 0.370506,-0.42103 h 0.572601 c 0.404189,0 0.538918,0.218936 0.538918,0.404189 v 1.347296 h 2.004103 v -1.852532 c 0,-0.875743 -0.741013,-1.583073 -1.616755,-1.583073 h -2.273562 c -0.875743,0 -1.599914,0.70733 -1.599914,1.583073 v 2.694592 c 0,1.869373 3.486128,1.802008 3.486128,3.418763 v 2.812481 c 0,0.218935 -0.185253,0.404188 -0.404189,0.404188 h -0.70733 c -0.185253,0 -0.370506,-0.218935 -0.370506,-0.404188 v -1.717803 h -2.020944 v 2.23988 c 0,0.875742 0.724171,1.583073 1.583072,1.583073 h 2.307245 c 0.875742,0 1.616755,-0.707331 1.616755,-1.583073 v -4.07557 c 0,-2.10515 -3.486128,-2.054627 -3.486128,-3.385082 z m 6.346885,10.508909 h 2.004103 v -5.170249 h 1.852532 c 0.858901,0 1.616755,-0.673648 1.616755,-1.583072 v -4.277665 c 0,-0.875743 -0.757854,-1.583073 -1.616755,-1.583073 H 19.362077 Z M 22.49454,14.953076 c 0.202095,0 0.336824,0.218936 0.336824,0.404189 v 3.250351 c 0,0.218936 -0.185253,0.387348 -0.404189,0.387348 H 21.36618 V 14.953076 Z M 33.220123,25.883015 30.357119,13.268956 h -1.886214 l -2.829322,12.614059 h 2.172515 l 0.488395,-2.559863 h 2.189356 l 0.538918,2.559863 z m -3.65454,-7.039622 c 0.202094,0.943107 0.370506,1.835691 0.572601,2.778798 h -1.431502 l 0.572601,-2.778798 0.134729,-2.239879 z m 9.226722,1.835691 v 3.098781 c 0,0.218935 -0.168412,0.404188 -0.387347,0.404188 h -0.774695 c -0.185254,0 -0.303142,-0.202094 -0.303142,-0.404188 v -8.403759 c 0,-0.185253 0.101047,-0.387348 0.303142,-0.387348 h 0.84206 c 0.202094,0 0.319982,0.202095 0.319982,0.387348 v 3.36824 h 1.987262 v -3.890317 c 0,-0.875743 -0.70733,-1.583073 -1.583073,-1.583073 h -2.324085 c -0.858902,0 -1.566232,0.70733 -1.566232,1.583073 v 9.447913 c 0,0.875742 0.70733,1.583073 1.566232,1.583073 h 2.324085 c 0.875743,0 1.583073,-0.707331 1.583073,-1.583073 v -3.620858 z m 4.864857,5.203931 h 5.507073 v -2.004103 h -3.50297 v -3.166146 h 2.964051 v -2.004102 h -2.964051 v -3.435605 h 3.50297 v -2.004103 h -5.507073 z"
       id="text2"
       style="font-weight:bold;font-size:16.8412px;line-height:0;font-family:Ampero;-inkscape-font-specification:'Ampero Bold';letter-spacing:1.32821px;fill:#fefefe;stroke-width:1.40343"
       aria-label="SPACE" />
    <path
       d="m 54.597391,16.109493 c 0,-0.167206 0.12862,-0.32155 0.282964,-0.32155 h 0.437308 c 0.308688,0 0.411584,0.167206 0.411584,0.308688 v 1.02896 h 1.530578 v -1.41482 c 0,-0.668824 -0.565928,-1.209028 -1.234752,-1.209028 h -1.73637 c -0.668824,0 -1.22189,0.540204 -1.22189,1.209028 v 2.05792 c 0,1.427683 2.662434,1.376235 2.662434,2.610987 v 2.147954 c 0,0.167206 -0.141482,0.308688 -0.308688,0.308688 h -0.540204 c -0.141482,0 -0.282964,-0.167206 -0.282964,-0.308688 v -1.311924 h -1.54344 v 1.710646 c 0,0.668824 0.553066,1.209028 1.209028,1.209028 h 1.762094 c 0.668824,0 1.234752,-0.540204 1.234752,-1.209028 V 19.81375 c 0,-1.607751 -2.662434,-1.569165 -2.662434,-2.585263 z m 4.602876,-0.07717 h 1.311924 v 8.103061 h 1.54344 v -8.103061 h 1.324786 v -1.530578 h -4.18015 z m 10.442229,8.103061 -2.18654,-9.633639 h -1.440544 l -2.160816,9.633639 h 1.659198 l 0.372998,-1.955024 h 1.67206 l 0.411584,1.955024 z m -2.791054,-5.376316 c 0.154344,0.720272 0.282964,1.401958 0.437308,2.12223 h -1.09327 l 0.437308,-2.12223 0.102896,-1.710647 z m 3.445294,-2.726745 h 1.311924 v 8.103061 h 1.54344 v -8.103061 h 1.324786 v -1.530578 h -4.18015 z m 6.236352,8.103061 h 1.54344 v -9.633639 h -1.54344 z m 6.635084,0 c 0.668824,0 1.209028,-0.540204 1.209028,-1.209028 v -7.215583 c 0,-0.668824 -0.540204,-1.209028 -1.209028,-1.209028 h -1.774957 c -0.655962,0 -1.196166,0.540204 -1.196166,1.209028 v 7.215583 c 0,0.668824 0.540204,1.209028 1.196166,1.209028 z m -0.694548,-8.347439 c 0.295826,0 0.38586,0.167206 0.38586,0.308688 v 6.431001 c 0,0.167206 -0.12862,0.308688 -0.295826,0.308688 h -0.540204 c -0.141482,0 -0.282964,-0.167206 -0.282964,-0.308688 v -6.418139 c 0,-0.167206 0.12862,-0.32155 0.282964,-0.32155 z m 8.422898,-1.2862 h -1.54344 v 3.652808 l 0.205792,1.273339 -1.260477,-4.926147 h -1.659198 v 9.633639 h 1.530578 v -3.652808 l -0.205792,-1.273338 1.260477,4.926146 h 1.67206 z"
       id="text2-8"
       style="font-weight:bold;font-size:12.862px;line-height:0;font-family:Ampero;-inkscape-font-specification:'Ampero Bold';letter-spacing:1.01438px;fill:#d5d5d5;stroke-width:1.07183"
       aria-label="STATION" />
    <path
       d="M 99.895521,29.366043 V 9.8214872 h -3.131304 c -0.18266,0.8089198 -0.49579,1.3308038 -0.80892,1.7222168 -0.18266,0.208754 -0.391413,0.391413 -0.574073,0.547979 v 3.053021 h 1.356899 v 14.221339 z m 3.187319,-5.558065 h 5.34932 v 5.558065 h 3.1052 v -5.558065 h 2.08754 v -3.105209 h -2.08754 V 9.8214872 h -4.38382 l -4.0707,10.8290928 z m 5.27103,-8.428426 0.41751,-1.539558 -0.33922,1.983159 v 4.879616 h -2.13973 z"
       id="text2-8-6"
       style="font-weight:bold;font-size:26.0942px;line-height:0;font-family:Ampero;-inkscape-font-specification:'Ampero Bold';letter-spacing:0.995412px;fill:#e23229;stroke-width:2.17451"
       aria-label="14" />
    <rect
       style="fill:#e23229;fill-opacity:1;stroke-width:0.138955"
       id="rect3"
       width="81.820511"
       height="0.84171969"
       x="11.001281"
       y="27.921839" />
    <rect
       style="fill:#e23229;fill-opacity:1;stroke-width:0.138955"
       id="rect4"
       width="81.820511"
       height="0.84171969"
       x="11.001281"
       y="10.100448" />
    <path
       style="fill:#fefefe;fill-opacity:1;stroke-width:0.114156"
       d="M 12.622119,13.268692 H 9.4185274 l 1.7908496,0.964459 z"
       id="path5" />
  </g>
</svg>
