<?xml version="1.0" encoding="UTF-8"?>
<svg width="1330px" height="461px" viewBox="0 0 1330 461" version="1.1" xmlns="http://www.w3.org/2000/svg" xmlns:xlink="http://www.w3.org/1999/xlink">
    <!-- Generator: Sketch 52.1 (67048) - http://www.bohemiancoding.com/sketch -->
    <title>Group 2</title>
    <desc>Created with Sketch.</desc>
    <g id="Page-1" stroke="none" stroke-width="1" fill="none" fill-rule="evenodd">
        <g id="Group-2">
            <g id="background">
                <rect id="Rectangle" fill="#1050AC" x="0" y="0" width="1330" height="461" rx="23"></rect>
                <rect id="Rectangle" fill="#1050AC" x="31" y="32" width="1270" height="398"></rect>
                <rect id="Rectangle" stroke="#FFFFFF" stroke-linecap="round" stroke-linejoin="round" transform="translate(665.000000, 230.000000) rotate(90.000000) translate(-665.000000, -230.000000) " x="465" y="-405" width="400" height="1270"></rect>
                <g id="Group" transform="translate(30.000000, 30.000000)" stroke="#FFFFFF" stroke-width="0.25">
                    <g transform="translate(29.000000, 0.000000)" id="Path">
                        <path d="M1121,400.004403 L1121,0"></path>
                        <path d="M1081,400.004403 L1081,0"></path>
                        <path d="M1121,400.004403 L1121,0"></path>
                        <path d="M1161,400.004403 L1161,0"></path>
                        <path d="M1201,400.004403 L1201,0"></path>
                        <path d="M1241,400.004403 L1241,0"></path>
                        <path d="M1041,400.004403 L1041,0"></path>
                        <path d="M1001,400.004403 L1001,0"></path>
                        <path d="M961,400.004403 L961,0"></path>
                        <path d="M921,400.004403 L921,0"></path>
                        <path d="M881,400.004403 L881,0"></path>
                        <path d="M841,400.004403 L841,0"></path>
                        <path d="M801,400.004403 L801,0"></path>
                        <path d="M761,400.004403 L761,0"></path>
                        <path d="M721,400.004403 L721,0"></path>
                        <path d="M681,400.004403 L681,0"></path>
                        <path d="M641,400.004403 L641,0"></path>
                        <path d="M601,400.004403 L601,0"></path>
                        <path d="M561,400.004403 L561,0"></path>
                        <path d="M521,400.004403 L521,0"></path>
                        <path d="M481,400.004403 L481,0"></path>
                        <path d="M441,400.004403 L441,0"></path>
                        <path d="M401,400.004403 L401,0"></path>
                        <path d="M361,400.004403 L361,0"></path>
                        <path d="M321,400.004403 L321,0"></path>
                        <path d="M281,400.004403 L281,0"></path>
                        <path d="M241,400.004403 L241,0"></path>
                        <path d="M201,400.004403 L201,0"></path>
                        <path d="M161,400.004403 L161,0"></path>
                        <path d="M121,400.004403 L121,0"></path>
                        <path d="M81,400.004403 L81,0"></path>
                        <path d="M41,400.004403 L41,0"></path>
                        <path d="M1,400.004403 L1,0"></path>
                    </g>
                    <g transform="translate(0.000000, 1.000000)" id="Path">
                        <path d="M0.547429473,399 L1270.04021,399"></path>
                        <path d="M0.547429473,361 L1270.04021,361"></path>
                        <path d="M0.547429473,321 L1270.04021,321"></path>
                        <path d="M0.547429473,281 L1270.04021,281"></path>
                        <path d="M0.547429473,241 L1270.04021,241"></path>
                        <path d="M0.547429473,201 L1270.04021,201"></path>
                        <path d="M0.547429473,161 L1270.04021,161"></path>
                        <path d="M0.547429473,121 L1270.04021,121"></path>
                        <path d="M0.547429473,81 L1270.04021,81"></path>
                        <path d="M0.547429473,41 L1270.04021,41"></path>
                        <path d="M0.547429473,1 L1270.04021,1"></path>
                    </g>
                </g>
            </g>
            <path d="M277.5,194.5 L253.5,184 L277.5,194.5 Z M253.5,184 L244.5,159.5 L253.5,184 Z M244.5,159.5 L191.75,132.5 L244.5,159.5 Z M191.75,132.5 L178.5,146 L191.75,132.5 Z M178.5,146 L157,135.5 L178.5,146 Z M157,135.5 L157,130.5 L157,135.5 Z M157,130.5 L184.5,116.5 L157,130.5 Z M185.125,116.5 L196.5,120.5 L185.125,116.5 Z M196.5,120.5 L218.125,111.5 L196.5,120.5 Z M218.125,111.5 L269.5,135.5 L218.125,111.5 Z M269.5,135.5 L286.5,167.5 L269.5,135.5 Z M286.5,167.5 L304.5,175.5 L286.5,167.5 Z M304.5,175.5 L304.5,180.5 L304.5,175.5 Z M277.5,194.5 L304.5,180.5 L277.5,194.5 Z M277.5,290.5 L277.5,373.5 L277.5,290.5 Z M301,230.5 L277.5,290.5 L301,230.5 Z M277.5,290.5 L386.5,236.5 L277.5,290.5 Z M95.5,130.5 L301,230.5 L95.5,130.5 Z M368.5,196.5 L301,230.5 L368.5,196.5 Z M74.5,268.5 L277.5,373.5 L74.5,268.5 Z M277.5,373.5 L386.5,316.5 L277.5,373.5 Z M386.5,316.5 L386.5,236.5 L386.5,316.5 Z M386.5,236.5 L368.5,196.5 L386.5,236.5 Z M368.5,196.5 L279.5,151.5 L368.5,196.5 Z M207.5,114.5 L176,98.5 L207.5,114.5 Z M176,98.5 L161.5,96.5 L176,98.5 Z M161.5,96.5 L95.5,130.5 L161.5,96.5 Z M95.5,130.5 L74.5,188.5 L95.5,130.5 Z M74.5,188.5 L74.5,268.5 L74.5,188.5 Z M74.5,188.5 L152.5,228.5 L74.5,188.5 Z M152.5,228.5 L161.5,206.5 L152.5,228.5 Z M161.5,206.5 L193.5,220.5 L161.5,206.5 Z M193.5,220.5 L184.5,243.5 L193.5,220.5 Z M184.5,243.5 L277.5,290.5 L184.5,243.5 Z M184.5,243.5 L184.5,264 L184.5,243.5 Z M184.5,264 L152.5,249.5 L184.5,264 Z M152.5,249.5 L152.5,228.5 L152.5,249.5 Z" id="Combined-Shape" stroke="#FFFFFF" stroke-width="3" stroke-linecap="square" stroke-linejoin="round"></path>
            <path d="M421.2,98 L421.2,366 L421.2,98 Z M415,366 L427.4,366 L415,366 Z M415,98 L427.4,98 L415,98 Z" id="Combined-Shape" stroke="#FFFFFF" stroke-width="2" stroke-linecap="round" stroke-linejoin="round"></path>
            <path d="M228.887879,247 L228.512121,548 L228.887879,247 Z M222.5,548 L234.524242,548 L222.5,548 Z M222.875758,247 L234.9,247 L222.875758,247 Z" id="Combined-Shape" stroke="#FFFFFF" stroke-width="2" stroke-linecap="round" stroke-linejoin="round" transform="translate(228.700000, 401.250000) rotate(90.000000) translate(-228.700000, -401.250000) "></path>
            <text id="Robust-Toolbox" fill="#FFFFFF" font-family="AmericanTypewriter-Light, American Typewriter" font-size="140" font-weight="300">
                <tspan x="538" y="190">Robust</tspan>
                <tspan x="538" y="349">Toolbox</tspan>
            </text>
            <g id="Group-3" transform="translate(1160.000000, 132.000000)" stroke="#FFFFFF" stroke-linecap="round" stroke-linejoin="round">
                <polygon id="Path" stroke-width="2" points="63.8 60.3 53.7 64.9 50.4 66.5 38.3 58 38.6 54.3 39.6 43.3 42.1 42.2 45.5 40.6 53 37.1 65 45.6 64.3 53.7 64 57.5"></polygon>
                <circle id="Oval" stroke-width="2" cx="51.7" cy="51.8" r="35.3"></circle>
                <polygon id="Path" stroke-width="2" points="42.1 42.2 29 24.7 31.9 22.5 45.5 40.6"></polygon>
                <polygon id="Path" stroke-width="2" points="38.3 58 38.6 58.3 18.9 65 17.7 61.6 38.6 54.3"></polygon>
                <rect id="Rectangle" stroke-width="2.0001056" transform="translate(65.516400, 32.092800) rotate(-55.000470) translate(-65.516400, -32.092800) " x="54.265806" y="30.2427023" width="22.501188" height="3.70019535"></rect>
                <polygon id="Path" stroke-width="2" points="53.7 64.9 54.1 87.1 50.4 87.1 50.1 66.3 50.4 66.5"></polygon>
                <polygon id="Path" stroke-width="2" points="64 57.5 64.3 53.7 86 60.4 84.9 63.9"></polygon>
                <path d="M98.1,59.3 L102.7,60.3 L101.5,65.6 L96.9,64.6 C95.7,68.7 94,72.7 91.7,76.4 L95.6,79.1 L92.5,83.6 L88.6,80.9 C85.9,84.4 82.7,87.4 79.3,89.8 L81.8,93.8 L77.2,96.7 L74.7,92.7 C74,93.1 73.4,93.4 72.7,93.8 C70.1,95.1 67.4,96.1 64.7,96.9 C64,97.1 63.4,97.3 62.7,97.4 L63.5,102.1 L58.1,103 L57.3,98.3 C55.1,98.6 52.9,98.7 50.7,98.6 C48.6,98.6 46.5,98.4 44.4,98 L43.4,102.6 L38.1,101.4 L39.1,96.8 C35,95.6 31,93.9 27.3,91.6 L24.6,95.5 L20.1,92.4 L22.8,88.5 C19.3,85.8 16.3,82.6 13.8,79.2 L9.8,81.7 L6.9,77.1 L10.9,74.6 C8.8,70.8 7.2,66.7 6.2,62.5 L1.5,63.3 L0.6,57.9 L5.3,57.1 C4.9,53.8 4.9,50.4 5.2,47 C5.3,46.1 5.4,45.1 5.6,44.2 L1,43.2 L2.2,37.9 L6.8,38.9 C8,34.8 9.7,30.8 12,27.1 L8.1,24.4 L11.2,19.9 L15.1,22.6 C17.8,19.1 21,16.1 24.4,13.7 L21.9,9.7 L26.5,6.8 L29,10.8 C32.8,8.7 36.9,7.1 41.1,6.1 L40.3,1.4 L45.7,0.5 L46.5,5.2 C50.8,4.7 55.1,4.8 59.4,5.5 L60.4,0.9 L65.7,2.1 L64.7,6.7 C68.8,7.9 72.8,9.6 76.5,11.9 L79.2,8 L83.7,11.1 L81,15 C84.5,17.7 87.5,20.9 90,24.3 L94,21.8 L96.9,26.4 L92.9,28.9 C95,32.7 96.6,36.8 97.6,41 L102.3,40.2 L103.2,45.6 L98.5,46.4 C98.8,50.6 98.7,55 98.1,59.3 Z" id="Path" stroke-width="2"></path>
            </g>
            <g id="Group-3" transform="translate(1169.337816, 271.337816) rotate(12.000000) translate(-1169.337816, -271.337816) translate(1121.837816, 223.837816)" stroke="#FFFFFF">
                <circle id="Oval" stroke-width="2" stroke-linecap="round" stroke-linejoin="round" cx="47.5" cy="47.5" r="32.5"></circle>
                <ellipse id="Oval" stroke-width="2" cx="46.5" cy="47.5" rx="12.5" ry="11.5"></ellipse>
                <polygon id="Path" stroke-width="2" stroke-linecap="round" stroke-linejoin="round" points="37.9090909 39 26 23.0101523 28.6363636 21 41 37.5380711"></polygon>
                <polygon id="Path" stroke-width="2" stroke-linecap="round" stroke-linejoin="round" points="34.7272727 53.4579439 35 53.7383178 17.0909091 60 16 56.8224299 35 50"></polygon>
                <polygon id="Rectangle" stroke-width="2.0001056" stroke-linecap="round" stroke-linejoin="round" transform="translate(59.122533, 30.011607) rotate(-55.000470) translate(-59.122533, -30.011607) " points="49.1225325 28.5184907 69.1166554 28.5116065 69.1225325 31.5047223 49.1284096 31.5116065"></polygon>
                <polygon id="Path" stroke-width="2" stroke-linecap="round" stroke-linejoin="round" points="48.7 60 49 80 46.225 80 46 61.2612613 46.225 61.4414414"></polygon>
                <polygon id="Path" stroke-width="2" stroke-linecap="round" stroke-linejoin="round" points="59 52.7254902 59.2727273 49 79 55.5686275 78 59"></polygon>
                <path d="M90.2777778,54.497561 L94.537037,55.4243902 L93.4259259,60.3365854 L89.1666667,59.4097561 C88.0555556,63.2097561 86.4814815,66.9170732 84.3518519,70.3463415 L87.962963,72.8487805 L85.0925926,77.0195122 L81.4814815,74.5170732 C78.9814815,77.7609756 76.0185185,80.5414634 72.8703704,82.7658537 L75.1851852,86.4731707 L70.9259259,89.1609756 L68.6111111,85.4536585 C67.962963,85.8243902 67.4074074,86.102439 66.7592593,86.4731707 C64.3518519,87.6780488 61.8518519,88.604878 59.3518519,89.3463415 C58.7037037,89.5317073 58.1481481,89.7170732 57.5,89.8097561 L58.2407407,94.1658537 L53.2407407,95 L52.5,90.6439024 C50.462963,90.9219512 48.4259259,91.0146341 46.3888889,90.9219512 C44.4444444,90.9219512 42.5,90.7365854 40.5555556,90.3658537 L39.6296296,94.6292683 L34.7222222,93.5170732 L35.6481481,89.2536585 C31.8518519,88.1414634 28.1481481,86.5658537 24.7222222,84.4341463 L22.2222222,88.0487805 L18.0555556,85.1756098 L20.5555556,81.5609756 C17.3148148,79.0585366 14.537037,76.0926829 12.2222222,72.9414634 L8.51851852,75.2585366 L5.83333333,70.995122 L9.53703704,68.6780488 C7.59259259,65.1560976 6.11111111,61.3560976 5.18518519,57.4634146 L0.833333333,58.204878 L0,53.2 L4.35185185,52.4585366 C3.98148148,49.4 3.98148148,46.2487805 4.25925926,43.097561 C4.35185185,42.2634146 4.44444444,41.3365854 4.62962963,40.502439 L0.37037037,39.5756098 L1.48148148,34.6634146 L5.74074074,35.5902439 C6.85185185,31.7902439 8.42592593,28.0829268 10.5555556,24.6536585 L6.94444444,22.1512195 L9.81481481,17.9804878 L13.4259259,20.4829268 C15.9259259,17.2390244 18.8888889,14.4585366 22.037037,12.2341463 L19.7222222,8.52682927 L23.9814815,5.83902439 L26.2962963,9.54634146 C29.8148148,7.6 33.6111111,6.11707317 37.5,5.1902439 L36.7592593,0.834146341 L41.7592593,0 L42.5,4.35609756 C46.4814815,3.89268293 50.462963,3.98536585 54.4444444,4.63414634 L55.3703704,0.370731707 L60.2777778,1.48292683 L59.3518519,5.74634146 C63.1481481,6.85853659 66.8518519,8.43414634 70.2777778,10.5658537 L72.7777778,6.95121951 L76.9444444,9.82439024 L74.4444444,13.4390244 C77.6851852,15.9414634 80.462963,18.9073171 82.7777778,22.0585366 L86.4814815,19.7414634 L89.1666667,24.004878 L85.462963,26.3219512 C87.4074074,29.8439024 88.8888889,33.6439024 89.8148148,37.5365854 L94.1666667,36.795122 L95,41.8 L90.6481481,42.5414634 C90.9259259,46.4341463 90.8333333,50.5121951 90.2777778,54.497561 Z" id="Path" stroke-width="2" stroke-linecap="round" stroke-linejoin="round"></path>
            </g>
        </g>
    </g>
</svg>