<?xml version="1.0" encoding="UTF-8" standalone="no"?>
<svg
   xmlns:dc="http://purl.org/dc/elements/1.1/"
   xmlns:cc="http://creativecommons.org/ns#"
   xmlns:rdf="http://www.w3.org/1999/02/22-rdf-syntax-ns#"
   xmlns:svg="http://www.w3.org/2000/svg"
   xmlns="http://www.w3.org/2000/svg"
   xmlns:sodipodi="http://sodipodi.sourceforge.net/DTD/sodipodi-0.dtd"
   xmlns:inkscape="http://www.inkscape.org/namespaces/inkscape"
   width="50mm"
   height="50mm"
   viewBox="0 0 49.999999 50"
   version="1.1"
   id="svg8"
   inkscape:version="1.0.2-2 (e86c870879, 2021-01-15)"
   sodipodi:docname="wiki.svg">
  <defs
     id="defs2">
    <style
       id="style2">.cls-1{fill:#d5d5d5;}.cls-2{fill:#e23229;}</style>
  </defs>
  <sodipodi:namedview
     id="base"
     pagecolor="#ffffff"
     bordercolor="#666666"
     borderopacity="1.0"
     inkscape:pageopacity="0.0"
     inkscape:pageshadow="2"
     inkscape:zoom="1.979899"
     inkscape:cx="163.58846"
     inkscape:cy="74.73113"
     inkscape:document-units="mm"
     inkscape:current-layer="layer1"
     inkscape:document-rotation="0"
     showgrid="false"
     fit-margin-top="0"
     fit-margin-left="0"
     fit-margin-right="0"
     fit-margin-bottom="0"
     inkscape:window-width="1180"
     inkscape:window-height="864"
     inkscape:window-x="2410"
     inkscape:window-y="241"
     inkscape:window-maximized="0" />
  <metadata
     id="metadata5">
    <rdf:RDF>
      <cc:Work
         rdf:about="">
        <dc:format>image/svg+xml</dc:format>
        <dc:type
           rdf:resource="http://purl.org/dc/dcmitype/StillImage" />
        <dc:title></dc:title>
      </cc:Work>
    </rdf:RDF>
  </metadata>
  <g
     inkscape:label="Layer 1"
     inkscape:groupmode="layer"
     id="layer1"
     transform="translate(-46.515329,-189.11486)">
    <g
       id="g829"
       transform="matrix(0.16645582,0,0,0.16645582,48.573556,196.50217)">
      <path
         style="fill:#d5d5d5"
         inkscape:connector-curvature="0"
         d="m 123.07,37.839985 -63.39,4.43 7.69,-36.6199996 28.64,-2 -5,24.1899996 34.75,-2.42 12.46,-59.49 -98.21,6.91 -22.23,107.09 63.39,-4.43 -10.35,48.470005 -28.38,2 6.36,-29.880005 -35,2.44 -13.79,65.140005 98.13,-6.83 z"
         class="cls-1"
         id="path172" />
      <path
         style="fill:#d5d5d5"
         inkscape:connector-curvature="0"
         d="m 123.07,37.839985 -63.39,4.43 7.69,-36.6199996 28.64,-2 -5,24.1899996 34.75,-2.42 12.46,-59.49 -98.21,6.91 -22.23,107.09 63.39,-4.43 -10.35,48.470005 -28.38,2 6.36,-29.880005 -35,2.44 -13.79,65.140005 98.13,-6.83 z"
         class="cls-1"
         data-name="path172"
         id="path172-2" />
      <path
         style="fill:#d5d5d5"
         inkscape:connector-curvature="0"
         d="m 240.28,27.489985 -63.39,4.43 7.69,-36.6099996 28.64,-2 -5,24.2299996 34.75,-2.43 12.47,-59.49 -98.15,6.85 -22.28,107.12 63.39,-4.43 -10.39,48.480005 -28.38,2 6.38,-29.900005 -35,2.44 -13.8,65.160005 98.14,-6.86 z"
         class="cls-1"
         data-name="path172"
         id="path172-3" />
      <path
         style="fill:#e23229"
         inkscape:connector-curvature="0"
         d="m 109.24,253.60999 41.87,-200.640005 -59.68,4.17 -7.36,35 25.46,-1.78 -34.52,165.640005 z"
         class="cls-2"
         id="path148" />
      <path
         style="fill:#e23229"
         inkscape:connector-curvature="0"
         id="path12"
         d="m 248.01,141.39999 20.16,-96.620005 -26.09,1.92 -95.51,112.140005 -5.07,24.16 65.06,-4.5 -14.45,69.34 34.23,-2.39 14.45,-69.24 27.61,-1.89 7.24,-34.78 z m -32.83,5.11 -20.11,1.38 26,-29.61 z"
         class="cls-2" />
    </g>
  </g>
</svg>
