<?xml version="1.0" encoding="UTF-8" standalone="no"?>
<svg
   id="Layer_1"
   data-name="Layer 1"
   viewBox="0 0 256.00001 255.99999"
   version="1.1"
   sodipodi:docname="icon-baked.svg"
   width="256"
   height="256"
   inkscape:version="1.2.2 (732a01da63, 2022-12-09)"
   inkscape:export-filename="icon-trans.png"
   inkscape:export-xdpi="384"
   inkscape:export-ydpi="384"
   xml:space="preserve"
   xmlns:inkscape="http://www.inkscape.org/namespaces/inkscape"
   xmlns:sodipodi="http://sodipodi.sourceforge.net/DTD/sodipodi-0.dtd"
   xmlns="http://www.w3.org/2000/svg"
   xmlns:svg="http://www.w3.org/2000/svg"
   xmlns:rdf="http://www.w3.org/1999/02/22-rdf-syntax-ns#"
   xmlns:cc="http://creativecommons.org/ns#"
   xmlns:dc="http://purl.org/dc/elements/1.1/"><metadata
     id="metadata17"><rdf:RDF><cc:Work
         rdf:about=""><dc:format>image/svg+xml</dc:format><dc:type
           rdf:resource="http://purl.org/dc/dcmitype/StillImage" /><dc:title>Logo</dc:title></cc:Work></rdf:RDF></metadata><sodipodi:namedview
     pagecolor="#404040"
     bordercolor="#666666"
     borderopacity="1"
     objecttolerance="10"
     gridtolerance="10"
     guidetolerance="10"
     inkscape:pageopacity="0"
     inkscape:pageshadow="2"
     inkscape:window-width="2560"
     inkscape:window-height="1369"
     id="namedview15"
     showgrid="false"
     inkscape:zoom="4"
     inkscape:cx="141"
     inkscape:cy="126.5"
     inkscape:window-x="2552"
     inkscape:window-y="-8"
     inkscape:window-maximized="1"
     inkscape:current-layer="Layer_1"
     inkscape:pagecheckerboard="true"
     inkscape:showpageshadow="2"
     inkscape:deskcolor="#d1d1d1"
     showguides="false"><sodipodi:guide
       position="20.94882,74.419698"
       orientation="-0.069433618,0.99758657"
       id="guide2430"
       inkscape:locked="false" /><sodipodi:guide
       position="73.272355,197.16561"
       orientation="-0.069663038,0.99757058"
       id="guide2510"
       inkscape:locked="false" /><sodipodi:guide
       position="67.298958,168.72013"
       orientation="-0.069714868,0.99756696"
       id="guide2512"
       inkscape:locked="false" /><sodipodi:guide
       position="83.991844,142.90791"
       orientation="0.069714704,-0.99756697"
       id="guide2514"
       inkscape:locked="false" /><sodipodi:guide
       position="53.907365,103.7041"
       orientation="-0.070297825,0.99752605"
       id="guide2516"
       inkscape:locked="false" /><sodipodi:guide
       position="58.847651,126.91412"
       orientation="0.069545227,-0.9975788"
       id="guide2518"
       inkscape:locked="false" /><sodipodi:guide
       position="52.019802,222.65158"
       orientation="-0.070186043,0.99753392"
       id="guide2544"
       inkscape:locked="false" /></sodipodi:namedview><defs
     id="defs4"><style
       id="style2">.cls-1{fill:#d5d5d5;}.cls-2{fill:#e23229;}</style></defs><title
     id="title6">Logo</title><g
     id="g5008"
     inkscape:label="Trans rights 2: electric boogaloo"
     clip-path="none"><path
       id="path2669"
       style="fill:#5bcefa;stroke:none;stroke-width:0.665;fill-opacity:1"
       inkscape:label="the meth they cook"
       d="M 219.08203 21.666016 L 142.83984 26.998047 L 125.53516 110.19531 L 174.77539 106.75391 L 166.70508 144.41211 L 144.66016 145.96484 L 149.61523 122.74023 L 122.42773 124.63477 L 111.71094 175.24219 L 187.94141 169.91992 L 207.30664 77.492188 L 158.06641 80.933594 L 164.04102 52.496094 L 186.28711 50.941406 L 182.40234 69.763672 L 209.375 67.876953 L 219.08203 21.666016 z M 128.29883 28.013672 L 52.019531 33.347656 L 34.751953 116.5332 L 83.992188 113.0918 L 75.953125 150.74219 L 53.908203 152.29688 L 58.847656 129.08594 L 31.660156 130.98047 L 20.949219 181.58008 L 97.177734 176.25781 L 116.53906 83.837891 L 67.298828 87.279297 L 73.271484 58.833984 L 95.519531 57.28125 L 91.634766 76.070312 L 118.62891 74.191406 L 128.29883 28.013672 z " /><path
       id="path5012"
       style="fill:#f5a9b8;fill-opacity:1;stroke:none;stroke-width:0.665"
       inkscape:label="jesse"
       d="M 213.33008 49.054688 L 186.28711 50.943359 L 182.40234 69.763672 L 209.37695 67.876953 L 213.33008 49.054688 z M 164.04102 52.496094 L 137.14453 54.375 L 125.53516 110.19531 L 174.77539 106.75391 L 166.71875 144.3457 L 193.69727 142.44531 L 207.30664 77.492188 L 158.06641 80.933594 L 164.04102 52.496094 z M 122.56641 55.392578 L 95.519531 57.28125 L 91.634766 76.070312 L 118.62891 74.191406 L 122.56641 55.392578 z M 73.271484 58.833984 L 46.337891 60.714844 L 34.751953 116.5332 L 83.992188 113.0918 L 75.953125 150.74219 L 102.92188 148.8418 L 116.53906 83.837891 L 67.298828 87.279297 L 73.271484 58.833984 z M 149.61523 122.74023 L 122.42773 124.63477 L 117.51953 147.8125 L 144.67383 145.90039 L 149.61523 122.74023 z M 58.847656 129.08594 L 31.660156 130.98047 L 26.742188 154.21094 L 53.908203 152.29688 L 58.847656 129.08594 z " /><path
       id="path5140"
       style="fill:#ffffff;fill-opacity:1;stroke:none;stroke-width:0.665"
       inkscape:label="walter"
       d="M 207.30664 77.496094 L 131.23047 82.8125 L 125.53711 110.18945 L 201.57031 104.875 L 207.30664 77.496094 z M 116.53906 83.839844 L 40.433594 89.158203 L 34.751953 116.5332 L 66.203125 114.33594 L 83.992188 113.0918 L 110.80273 111.21875 L 116.53906 83.839844 z " /></g><g
     id="g829"
     transform="matrix(0.77677453,0,0,0.77677453,20.94105,54.445619)"
     inkscape:label="SS14"><g
       id="g2320"
       inkscape:label="14"
       style="display:inline"><path
         style="fill:#e23229"
         inkscape:connector-curvature="0"
         d="M 109.24,253.60999 151.11,52.969985 91.43,57.139985 84.07,92.139985 109.53,90.359985 75.01,255.99999 Z"
         class="cls-2"
         id="path148"
         inkscape:label="1" /><path
         style="fill:#e23229"
         inkscape:connector-curvature="0"
         id="path12"
         d="M 248.01,141.39999 268.17,44.779985 242.08,46.699985 146.57,158.83999 141.5,182.99999 206.56,178.49999 192.11,247.83999 226.34,245.44999 240.79,176.20999 268.4,174.31999 275.64,139.53999 Z M 215.18,146.50999 195.07,147.88999 221.07,118.27999 Z"
         class="cls-2"
         inkscape:label="4" /></g></g></svg>
