<?xml version="1.0" encoding="UTF-8" standalone="no"?>
<svg
   id="Layer_1"
   data-name="Layer 1"
   viewBox="0 0 256.00001 255.99999"
   version="1.1"
   sodipodi:docname="icon.svg"
   width="256"
   height="256"
   inkscape:version="1.2.2 (732a01da63, 2022-12-09)"
   inkscape:export-filename="icon.1024.png"
   inkscape:export-xdpi="384"
   inkscape:export-ydpi="384"
   xml:space="preserve"
   xmlns:inkscape="http://www.inkscape.org/namespaces/inkscape"
   xmlns:sodipodi="http://sodipodi.sourceforge.net/DTD/sodipodi-0.dtd"
   xmlns="http://www.w3.org/2000/svg"
   xmlns:svg="http://www.w3.org/2000/svg"
   xmlns:rdf="http://www.w3.org/1999/02/22-rdf-syntax-ns#"
   xmlns:cc="http://creativecommons.org/ns#"
   xmlns:dc="http://purl.org/dc/elements/1.1/"><metadata
     id="metadata17"><rdf:RDF><cc:Work
         rdf:about=""><dc:format>image/svg+xml</dc:format><dc:type
           rdf:resource="http://purl.org/dc/dcmitype/StillImage" /><dc:title>Logo</dc:title></cc:Work></rdf:RDF></metadata><sodipodi:namedview
     pagecolor="#202225"
     bordercolor="#666666"
     borderopacity="1"
     objecttolerance="10"
     gridtolerance="10"
     guidetolerance="10"
     inkscape:pageopacity="0"
     inkscape:pageshadow="2"
     inkscape:window-width="2560"
     inkscape:window-height="1369"
     id="namedview15"
     showgrid="false"
     inkscape:zoom="2"
     inkscape:cx="290.5"
     inkscape:cy="112.5"
     inkscape:window-x="2552"
     inkscape:window-y="-8"
     inkscape:window-maximized="1"
     inkscape:current-layer="g1516"
     inkscape:pagecheckerboard="true"
     inkscape:document-rotation="0"
     showguides="true"
     inkscape:guide-bbox="true"
     inkscape:snap-bbox="true"
     inkscape:snap-global="true"
     inkscape:snap-page="true"
     inkscape:snap-center="true"
     inkscape:showpageshadow="2"
     inkscape:deskcolor="#202225"><sodipodi:guide
       position="79.206911,2.700109"
       orientation="-0.069652232,0.99757133"
       id="guide865"
       inkscape:locked="false" /><sodipodi:guide
       position="31.528486,124.9955"
       orientation="-0.069545337,0.99757879"
       id="guide917"
       inkscape:locked="false" /><sodipodi:guide
       position="51.887748,222.62828"
       orientation="-0.070186007,0.99753392"
       id="guide921"
       inkscape:locked="false" /><sodipodi:guide
       position="142.98787,230.68343"
       orientation="0.97904726,-0.20363316"
       id="guide923"
       inkscape:locked="false" /><sodipodi:guide
       position="111.51253,80.775082"
       orientation="-0.06973005,0.9975659"
       id="guide873"
       inkscape:locked="false" /><sodipodi:guide
       position="187.74518,86.103755"
       orientation="-0.97874919,0.20506103"
       id="guide875"
       inkscape:locked="false" /><sodipodi:guide
       position="51.887751,222.62827"
       orientation="0.97873007,-0.20515228"
       id="guide1523"
       inkscape:locked="false" /><sodipodi:guide
       position="47.438011,201.39919"
       orientation="0.070185704,-0.99753394"
       id="guide2889"
       inkscape:locked="false" /></sodipodi:namedview><defs
     id="defs4"><style
       id="style2">.cls-1{fill:#d5d5d5;}.cls-2{fill:#e23229;}</style><clipPath
       clipPathUnits="userSpaceOnUse"
       id="clipPath7366"><g
         id="g7372"
         inkscape:label="ss"><path
           style="display:inline;fill:#d5d5d5"
           inkscape:connector-curvature="0"
           d="m 123.07,37.839985 -63.39,4.43 7.69,-36.6199996 28.64,-2 -5,24.1899996 34.75,-2.42 12.46,-59.49 -98.21,6.91 -22.23,107.09 63.39,-4.43 -10.35,48.470005 -28.38,2 6.36,-29.880005 -35,2.44 -13.79,65.140005 98.13,-6.83 z"
           class="cls-1"
           data-name="path172"
           id="path7368" /><path
           style="display:inline;fill:#d5d5d5"
           inkscape:connector-curvature="0"
           d="m 239.83944,29.608229 -63.39,4.43 7.69,-36.6099996 28.64,-2 -5,24.2299996 34.75,-2.43 12.47,-59.49 -98.15,6.85 -22.28,107.12 63.39,-4.43 -10.39,48.480001 -28.38,2 6.38,-29.900001 -35,2.44 -13.8,65.160001 59.56163,-4.16337 46.67466,-41.33992 z"
           class="cls-1"
           data-name="path172"
           id="path7370"
           sodipodi:nodetypes="cccccccccccccccccc" /></g></clipPath></defs><title
     id="title6">Logo</title><g
     id="g829"
     transform="matrix(0.77677453,0,0,0.77677453,20.94105,54.445619)"><g
       id="g1516"
       transform="translate(-0.17000171,0.02999841)"
       inkscape:label="flag"
       clip-path="url(#clipPath7366)"><path
         style="fill:#343434;fill-opacity:1;stroke-width:1.28737"
         d="M 40.010004,-27.160004 0.01000076,163.67 214.90945,148.59824 254.90092,-42.279625 Z"
         id="path1512"
         inkscape:label="1" /><path
         style="fill:#b9b9b9;stroke-width:1.28737;fill-opacity:1"
         d="M 5.5518981,136.44998 220.45895,121.32928 254.73092,-42.249627 39.84001,-27.130006 Z"
         id="path493"
         transform="translate(0.17000171,-0.02999841)"
         inkscape:label="2" /><path
         style="fill:#ffffff;stroke-width:1.28737;fill-opacity:1"
         d="M 39.993445,-27.08025 11.433799,109.16993 226.33816,94.049432 254.90092,-42.279625 Z"
         id="path497"
         inkscape:label="3" /><path
         style="fill:#b8f483;stroke-width:1.28737;fill-opacity:1"
         d="M 40.010011,-27.160004 17.145696,81.919902 232.04736,66.799593 254.90092,-42.279625 Z"
         id="path499"
         inkscape:label="4" /><path
         style="fill:#ffffff;stroke-width:1.28737;fill-opacity:1"
         d="M 40.010011,-27.160004 22.857594,54.669876 237.75657,39.549753 254.90092,-42.279625 Z"
         id="path501"
         inkscape:label="5" /><path
         style="fill:#b9b9b9;stroke-width:1.28737;fill-opacity:1"
         d="M 40.010011,-27.160004 28.577853,27.379955 243.47413,12.260021 254.90092,-42.279625 Z"
         id="path503"
         inkscape:label="6" /><path
         style="fill:#343434;stroke-width:1.28737;fill-opacity:1"
         d="M 40.010011,-27.160004 34.281391,0.16980233 249.17498,-14.949941 l 5.72594,-27.329684 z"
         id="path505"
         inkscape:label="7" /></g><g
       id="g869"
       inkscape:label="14"
       style="display:inline"><path
         style="display:inline;fill:#e23229"
         inkscape:connector-curvature="0"
         d="m 109.24,253.60999 41.87,-200.640005 -59.68,4.17 -7.36,35 25.46,-1.78 -34.52,165.640005 z"
         class="cls-2"
         id="path148" /><path
         style="display:inline;fill:#e23229"
         inkscape:connector-curvature="0"
         id="path12"
         d="m 248.01,141.39999 20.16,-96.620005 -26.09,1.92 -95.51,112.140005 -5.07,24.16 65.06,-4.5 -14.45,69.34 34.23,-2.39 14.45,-69.24 27.61,-1.89 7.24,-34.78 z m -32.83,5.11 -20.11,1.38 26,-29.61 z"
         class="cls-2" /></g></g></svg>
